<?xml version="1.0" standalone="no"?>
<!DOCTYPE svg PUBLIC "-//W3C//DTD SVG 20010904//EN"
 "http://www.w3.org/TR/2001/REC-SVG-20010904/DTD/svg10.dtd">
<svg version="1.0" xmlns="http://www.w3.org/2000/svg"
 width="465.000000pt" height="465.000000pt" viewBox="0 0 465.000000 465.000000"
 preserveAspectRatio="xMidYMid meet">
<metadata>
Created by potrace 1.14, written by Peter Selinger 2001-2017
</metadata>
<g transform="translate(0.000000,465.000000) scale(0.100000,-0.100000)"
fill="#000000" stroke="none">
<path d="M2159 4646 c-2 -2 -35 -6 -74 -9 -59 -6 -185 -27 -310 -52 -50 -10
-175 -50 -291 -93 -72 -27 -271 -119 -284 -132 -3 -3 -21 -14 -40 -24 -124
-67 -308 -206 -438 -331 -46 -44 -88 -81 -93 -83 -5 -2 -9 -8 -9 -12 0 -5 -10
-20 -23 -33 -12 -13 -37 -40 -54 -59 -18 -19 -33 -38 -33 -41 0 -3 -11 -18
-25 -33 -71 -77 -227 -339 -298 -504 -28 -65 -95 -257 -102 -293 -3 -10 -7
-27 -10 -37 -6 -19 -12 -46 -21 -90 -3 -14 -7 -32 -9 -40 -2 -8 -7 -37 -11
-65 -3 -27 -8 -53 -10 -56 -17 -29 -25 -451 -11 -579 20 -175 48 -305 103
-475 60 -188 153 -384 256 -538 21 -32 38 -62 38 -67 0 -5 3 -10 8 -12 4 -1
27 -30 52 -63 55 -73 84 -108 132 -157 20 -21 35 -38 33 -38 -3 0 30 -33 72
-73 42 -39 87 -82 99 -93 12 -12 37 -32 56 -45 18 -13 42 -31 52 -41 29 -27
202 -140 271 -178 280 -155 519 -233 865 -285 25 -4 133 -8 240 -10 439 -6
804 87 1185 300 73 41 178 108 190 120 6 6 28 23 51 38 22 15 49 35 60 45 11
9 37 32 59 51 95 80 212 200 285 291 19 24 42 51 50 60 24 26 120 170 120 180
0 4 4 10 8 12 10 3 55 82 100 173 36 71 92 194 92 200 0 2 5 16 12 32 6 15 12
33 13 38 2 6 10 33 20 60 9 28 18 57 21 65 2 8 13 51 24 94 12 44 23 92 25
108 2 15 6 35 9 45 5 19 13 77 25 188 9 81 7 418 -3 485 -4 25 -11 70 -16 100
-5 30 -12 71 -15 90 -3 19 -8 43 -11 52 -3 9 -7 25 -9 37 -7 37 -37 146 -45
166 -5 11 -21 54 -35 95 -15 41 -42 108 -61 148 -19 41 -34 75 -34 77 0 9
-105 191 -112 193 -4 2 -8 8 -8 14 0 14 -131 198 -142 198 -4 0 -8 6 -8 13 0
6 -19 32 -41 57 -224 245 -373 368 -619 511 -75 44 -222 119 -234 119 -3 0
-25 9 -49 19 -52 24 -200 74 -287 96 -64 17 -81 21 -130 30 -14 3 -36 7 -50
10 -14 3 -45 7 -70 10 -25 3 -56 7 -70 11 -27 6 -425 15 -431 10z"/>
</g>
</svg>
